<svg width="74" height="34" viewBox="0 0 74 34" fill="none" xmlns="http://www.w3.org/2000/svg">
<g filter="url(#filter0_i_337_1157)">
<g clip-path="url(#clip0_337_1157)">
<rect width="74" height="34" rx="17" fill="#35383E"/>
<g filter="url(#filter1_dd_337_1157)">
<circle cx="18" cy="17" r="12" fill="#575E69"/>
</g>
<path fill-rule="evenodd" clip-rule="evenodd" d="M55 9.09998C55.2917 9.09998 55.5715 9.2106 55.7778 9.40751C55.9841 9.60443 56.1 9.8715 56.1 10.15V11.2C56.1 11.4785 55.9841 11.7455 55.7778 11.9424C55.5715 12.1394 55.2917 12.25 55 12.25C54.7082 12.25 54.4284 12.1394 54.2221 11.9424C54.0158 11.7455 53.9 11.4785 53.9 11.2V10.15C53.9 9.8715 54.0158 9.60443 54.2221 9.40751C54.4284 9.2106 54.7082 9.09998 55 9.09998ZM59.4 17.5C59.4 18.6139 58.9364 19.6822 58.1112 20.4698C57.2861 21.2575 56.1669 21.7 55 21.7C53.833 21.7 52.7138 21.2575 51.8887 20.4698C51.0635 19.6822 50.6 18.6139 50.6 17.5C50.6 16.3861 51.0635 15.3178 51.8887 14.5301C52.7138 13.7425 53.833 13.3 55 13.3C56.1669 13.3 57.2861 13.7425 58.1112 14.5301C58.9364 15.3178 59.4 16.3861 59.4 17.5ZM58.8896 22.6975L59.6672 23.4398C59.8747 23.6311 60.1526 23.7369 60.441 23.7345C60.7294 23.7321 61.0053 23.6217 61.2093 23.427C61.4132 23.2324 61.5289 22.969 61.5314 22.6937C61.5339 22.4184 61.423 22.1532 61.2226 21.9551L60.445 21.2128C60.2375 21.0215 59.9596 20.9157 59.6712 20.9181C59.3828 20.9205 59.1069 21.0309 58.9029 21.2256C58.699 21.4202 58.5833 21.6836 58.5808 21.9589C58.5783 22.2342 58.6892 22.4994 58.8896 22.6975ZM61.2215 11.5601C61.4278 11.757 61.5436 12.0241 61.5436 12.3025C61.5436 12.5809 61.4278 12.8479 61.2215 13.0448L60.445 13.7872C60.3435 13.8875 60.2221 13.9675 60.0879 14.0225C59.9537 14.0775 59.8093 14.1065 59.6633 14.1077C59.5172 14.1089 59.3724 14.0823 59.2372 14.0295C59.102 13.9767 58.9792 13.8988 58.8759 13.8002C58.7726 13.7016 58.691 13.5844 58.6356 13.4553C58.5803 13.3263 58.5525 13.188 58.5538 13.0486C58.555 12.9092 58.5854 12.7714 58.643 12.6433C58.7007 12.5152 58.7845 12.3993 58.8896 12.3025L59.6672 11.5601C59.8735 11.3633 60.1533 11.2527 60.445 11.2527C60.7366 11.2527 61.0164 11.3633 61.2226 11.5601H61.2215ZM62.6999 18.55C62.9917 18.55 63.2715 18.4394 63.4778 18.2424C63.6841 18.0455 63.7999 17.7785 63.7999 17.5C63.7999 17.2215 63.6841 16.9544 63.4778 16.7575C63.2715 16.5606 62.9917 16.45 62.6999 16.45H61.5999C61.3082 16.45 61.0284 16.5606 60.8221 16.7575C60.6158 16.9544 60.5 17.2215 60.5 17.5C60.5 17.7785 60.6158 18.0455 60.8221 18.2424C61.0284 18.4394 61.3082 18.55 61.5999 18.55H62.6999ZM55 22.75C55.2917 22.75 55.5715 22.8606 55.7778 23.0575C55.9841 23.2544 56.1 23.5215 56.1 23.8V24.85C56.1 25.1285 55.9841 25.3955 55.7778 25.5924C55.5715 25.7894 55.2917 25.9 55 25.9C54.7082 25.9 54.4284 25.7894 54.2221 25.5924C54.0158 25.3955 53.9 25.1285 53.9 24.85V23.8C53.9 23.5215 54.0158 23.2544 54.2221 23.0575C54.4284 22.8606 54.7082 22.75 55 22.75ZM49.555 13.7872C49.6571 13.8847 49.7783 13.9621 49.9118 14.015C50.0453 14.0678 50.1883 14.095 50.3328 14.095C50.4773 14.0951 50.6204 14.068 50.7539 14.0152C50.8874 13.9625 51.0087 13.8852 51.1109 13.7877C51.2131 13.6902 51.2942 13.5745 51.3495 13.4471C51.4049 13.3197 51.4334 13.1831 51.4334 13.0452C51.4335 12.9073 51.4051 12.7707 51.3498 12.6433C51.2946 12.5158 51.2136 12.4 51.1115 12.3025L50.3327 11.5601C50.1252 11.3689 49.8473 11.263 49.5589 11.2654C49.2705 11.2678 48.9946 11.3782 48.7907 11.5729C48.5867 11.7676 48.471 12.0309 48.4685 12.3063C48.466 12.5816 48.5769 12.8468 48.7773 13.0448L49.555 13.7872ZM51.1104 22.6975L50.3327 23.4398C50.1252 23.6311 49.8473 23.7369 49.5589 23.7345C49.2705 23.7321 48.9946 23.6217 48.7907 23.427C48.5867 23.2324 48.471 22.969 48.4685 22.6937C48.466 22.4184 48.5769 22.1532 48.7773 21.9551L49.555 21.2128C49.7624 21.0215 50.0403 20.9157 50.3287 20.9181C50.6171 20.9205 50.893 21.0309 51.097 21.2256C51.3009 21.4202 51.4166 21.6836 51.4191 21.9589C51.4216 22.2342 51.3107 22.4994 51.1104 22.6975ZM48.4 18.55C48.6917 18.55 48.9715 18.4394 49.1778 18.2424C49.3841 18.0455 49.5 17.7785 49.5 17.5C49.5 17.2215 49.3841 16.9544 49.1778 16.7575C48.9715 16.5606 48.6917 16.45 48.4 16.45H47.3C47.0082 16.45 46.7284 16.5606 46.5221 16.7575C46.3158 16.9544 46.2 17.2215 46.2 17.5C46.2 17.7785 46.3158 18.0455 46.5221 18.2424C46.7284 18.4394 47.0082 18.55 47.3 18.55H48.4Z" fill="#EBCB87"/>
</g>
<rect x="0.5" y="0.5" width="73" height="33" rx="16.5" stroke="#565F6D"/>
</g>
<defs>
<filter id="filter0_i_337_1157" x="0" y="0" width="74" height="34" filterUnits="userSpaceOnUse" color-interpolation-filters="sRGB">
<feFlood flood-opacity="0" result="BackgroundImageFix"/>
<feBlend mode="normal" in="SourceGraphic" in2="BackgroundImageFix" result="shape"/>
<feColorMatrix in="SourceAlpha" type="matrix" values="0 0 0 0 0 0 0 0 0 0 0 0 0 0 0 0 0 0 127 0" result="hardAlpha"/>
<feOffset/>
<feGaussianBlur stdDeviation="2"/>
<feComposite in2="hardAlpha" operator="arithmetic" k2="-1" k3="1"/>
<feColorMatrix type="matrix" values="0 0 0 0 0 0 0 0 0 0 0 0 0 0 0 0 0 0 0.2 0"/>
<feBlend mode="normal" in2="shape" result="effect1_innerShadow_337_1157"/>
</filter>
<filter id="filter1_dd_337_1157" x="2" y="3" width="32" height="32" filterUnits="userSpaceOnUse" color-interpolation-filters="sRGB">
<feFlood flood-opacity="0" result="BackgroundImageFix"/>
<feColorMatrix in="SourceAlpha" type="matrix" values="0 0 0 0 0 0 0 0 0 0 0 0 0 0 0 0 0 0 127 0" result="hardAlpha"/>
<feOffset dy="1"/>
<feGaussianBlur stdDeviation="0.5"/>
<feColorMatrix type="matrix" values="0 0 0 0 0 0 0 0 0 0 0 0 0 0 0 0 0 0 0.14 0"/>
<feBlend mode="normal" in2="BackgroundImageFix" result="effect1_dropShadow_337_1157"/>
<feColorMatrix in="SourceAlpha" type="matrix" values="0 0 0 0 0 0 0 0 0 0 0 0 0 0 0 0 0 0 127 0" result="hardAlpha"/>
<feOffset dy="2"/>
<feGaussianBlur stdDeviation="2"/>
<feColorMatrix type="matrix" values="0 0 0 0 0 0 0 0 0 0 0 0 0 0 0 0 0 0 0.1 0"/>
<feBlend mode="normal" in2="effect1_dropShadow_337_1157" result="effect2_dropShadow_337_1157"/>
<feBlend mode="normal" in="SourceGraphic" in2="effect2_dropShadow_337_1157" result="shape"/>
</filter>
<clipPath id="clip0_337_1157">
<rect width="74" height="34" rx="17" fill="white"/>
</clipPath>
</defs>
</svg>
