<svg width="74" height="34" viewBox="0 0 74 34" fill="none" xmlns="http://www.w3.org/2000/svg">
<g filter="url(#filter0_i_337_1346)">
<rect width="74" height="34" rx="17" fill="#E3E3E3"/>
<rect x="0.5" y="0.5" width="73" height="33" rx="16.5" stroke="#04132B"/>
<path d="M29 20.9219C26.7718 21.9298 24.2893 22.2347 21.8834 21.7961C19.4775 21.3576 17.2623 20.1963 15.533 18.467C13.8037 16.7377 12.6424 14.5225 12.2039 12.1166C11.7653 9.71069 12.0702 7.22824 13.0781 5C11.3042 5.80168 9.75121 7.02174 8.55244 8.55551C7.35366 10.0893 6.54487 11.891 6.19545 13.806C5.84603 15.7211 5.96641 17.6923 6.54627 19.5506C7.12613 21.409 8.14815 23.0988 9.52465 24.4753C10.9012 25.8519 12.5911 26.8739 14.4494 27.4537C16.3077 28.0336 18.2789 28.154 20.194 27.8046C22.109 27.4551 23.9107 26.6463 25.4445 25.4476C26.9783 24.2488 28.1983 22.6958 29 20.9219Z" fill="#04132B"/>
<g filter="url(#filter1_dd_337_1346)">
<circle cx="54" cy="16" r="12" fill="#04132B"/>
</g>
</g>
<defs>
<filter id="filter0_i_337_1346" x="0" y="0" width="74" height="34" filterUnits="userSpaceOnUse" color-interpolation-filters="sRGB">
<feFlood flood-opacity="0" result="BackgroundImageFix"/>
<feBlend mode="normal" in="SourceGraphic" in2="BackgroundImageFix" result="shape"/>
<feColorMatrix in="SourceAlpha" type="matrix" values="0 0 0 0 0 0 0 0 0 0 0 0 0 0 0 0 0 0 127 0" result="hardAlpha"/>
<feOffset/>
<feGaussianBlur stdDeviation="2"/>
<feComposite in2="hardAlpha" operator="arithmetic" k2="-1" k3="1"/>
<feColorMatrix type="matrix" values="0 0 0 0 0 0 0 0 0 0 0 0 0 0 0 0 0 0 0.2 0"/>
<feBlend mode="normal" in2="shape" result="effect1_innerShadow_337_1346"/>
</filter>
<filter id="filter1_dd_337_1346" x="38" y="2" width="32" height="32" filterUnits="userSpaceOnUse" color-interpolation-filters="sRGB">
<feFlood flood-opacity="0" result="BackgroundImageFix"/>
<feColorMatrix in="SourceAlpha" type="matrix" values="0 0 0 0 0 0 0 0 0 0 0 0 0 0 0 0 0 0 127 0" result="hardAlpha"/>
<feOffset dy="1"/>
<feGaussianBlur stdDeviation="0.5"/>
<feColorMatrix type="matrix" values="0 0 0 0 0 0 0 0 0 0 0 0 0 0 0 0 0 0 0.14 0"/>
<feBlend mode="normal" in2="BackgroundImageFix" result="effect1_dropShadow_337_1346"/>
<feColorMatrix in="SourceAlpha" type="matrix" values="0 0 0 0 0 0 0 0 0 0 0 0 0 0 0 0 0 0 127 0" result="hardAlpha"/>
<feOffset dy="2"/>
<feGaussianBlur stdDeviation="2"/>
<feColorMatrix type="matrix" values="0 0 0 0 0 0 0 0 0 0 0 0 0 0 0 0 0 0 0.1 0"/>
<feBlend mode="normal" in2="effect1_dropShadow_337_1346" result="effect2_dropShadow_337_1346"/>
<feBlend mode="normal" in="SourceGraphic" in2="effect2_dropShadow_337_1346" result="shape"/>
</filter>
</defs>
</svg>
